<?xml version="1.0" encoding="UTF-8" standalone="no"?>
<svg
   xmlns:dc="http://purl.org/dc/elements/1.1/"
   xmlns:cc="http://creativecommons.org/ns#"
   xmlns:rdf="http://www.w3.org/1999/02/22-rdf-syntax-ns#"
   xmlns:svg="http://www.w3.org/2000/svg"
   xmlns="http://www.w3.org/2000/svg"
   viewBox="0 0 1122.52 239.03467"
   height="239.03467"
   width="1122.52"
   xml:space="preserve"
   id="svg2"
   version="1.1"><metadata
     id="metadata8"><rdf:RDF><cc:Work
         rdf:about=""><dc:format>image/svg+xml</dc:format><dc:type
           rdf:resource="http://purl.org/dc/dcmitype/StillImage" /></cc:Work></rdf:RDF></metadata><defs
     id="defs6"><clipPath
       id="clipPath24"
       clipPathUnits="userSpaceOnUse"><path
         id="path22"
         d="M 0,179.276 H 841.89 V 0 H 0 Z" /></clipPath><clipPath
       id="clipPath100"
       clipPathUnits="userSpaceOnUse"><path
         id="path98"
         d="M 0,179.276 H 841.89 V 0 H 0 Z" /></clipPath><clipPath
       id="clipPath176"
       clipPathUnits="userSpaceOnUse"><path
         id="path174"
         d="M 0,179.276 H 841.89 V 0 H 0 Z" /></clipPath><clipPath
       id="clipPath252"
       clipPathUnits="userSpaceOnUse"><path
         id="path250"
         d="M 0,179.276 H 841.89 V 0 H 0 Z" /></clipPath></defs><g
     transform="matrix(1.3333333,0,0,-1.3333333,0,239.03467)"
     id="g10"><path
       id="path12"
       style="fill:#f6f7f1;fill-opacity:1;fill-rule:nonzero;stroke:none"
       d="M 0.198,0.275 H 841.89 v 179 H 0.198 Z" /><path
       id="path14"
       style="fill:#0c2543;fill-opacity:1;fill-rule:nonzero;stroke:none"
       d="m 0,0.275 h 841.89 v 178.92 H 0 Z" /><path
       id="path16"
       style="fill:#ffffff;fill-opacity:1;fill-rule:nonzero;stroke:none"
       d="m 0,0.275 h 841.89 v 178.92 H 0 Z" /><g
       id="g18"><g
         clip-path="url(#clipPath24)"
         id="g20"><g
           transform="translate(79.4037,86.3677)"
           id="g26"><path
             id="path28"
             style="fill:#0c2543;fill-opacity:1;fill-rule:nonzero;stroke:none"
             d="m 0,0 c 0,6.085 -4.81,10.899 -10.89,10.899 -6.172,0 -10.893,-4.814 -10.893,-10.899 0,-6.087 4.721,-10.899 10.893,-10.899 C -4.81,-10.899 0,-6.087 0,0 m -30.404,0 c 0,10.627 8.258,18.891 19.514,18.891 11.254,0 19.513,-8.264 19.513,-18.891 0,-10.627 -8.259,-18.894 -19.513,-18.894 -11.256,0 -19.514,8.267 -19.514,18.894" /></g><g
           transform="translate(131.2439,86.3677)"
           id="g30"><path
             id="path32"
             style="fill:#0c2543;fill-opacity:1;fill-rule:nonzero;stroke:none"
             d="m 0,0 c 0,6.085 -4.81,10.899 -10.89,10.899 -6.083,0 -10.893,-4.814 -10.893,-10.899 0,-6.087 4.81,-10.899 10.893,-10.899 C -4.81,-10.899 0,-6.087 0,0 m 8.623,0 c 0,-10.538 -8.17,-18.894 -18.425,-18.894 -4.628,0 -8.623,1.726 -11.709,4.543 v -25.613 h -8.621 v 58.13 h 8.621 v -3.815 c 3.086,2.814 7.081,4.54 11.709,4.54 C 0.453,18.891 8.623,10.535 8.623,0" /></g><g
           transform="translate(251.5432,75.4687)"
           id="g34"><path
             id="path36"
             style="fill:#0c2543;fill-opacity:1;fill-rule:nonzero;stroke:none"
             d="m 0,0 c 6.082,0 10.892,4.812 10.892,10.899 0,6.085 -4.81,10.899 -10.892,10.899 -6.08,0 -10.89,-4.814 -10.89,-10.899 C -10.89,4.812 -6.08,0 0,0 m -1.089,29.79 c 4.629,0 8.624,-1.726 11.71,-4.54 v 3.815 h 8.621 v -37.3 h -8.621 v 4.783 C 7.535,-6.269 3.54,-7.995 -1.089,-7.995 c -10.255,0 -18.424,8.356 -18.424,18.894 0,10.535 8.169,18.891 18.424,18.891" /></g><g
           transform="translate(160.0311,91.182)"
           id="g38"><path
             id="path40"
             style="fill:#0c2543;fill-opacity:1;fill-rule:nonzero;stroke:none"
             d="M 0,0 H 19.967 C 18.333,4.177 14.885,6.812 10.075,6.812 5.174,6.812 1.542,4.087 0,0 m 29.315,-6.177 h -30.04 c 0.453,-6.087 4.628,-10.355 10.8,-10.355 4.718,0 8.532,2.453 10.074,6.268 h 8.623 c -2.179,-7.902 -9.167,-13.444 -18.697,-13.444 -11.256,0 -19.695,7.995 -19.695,18.894 0,10.899 8.439,18.891 19.603,18.891 11.072,0 19.242,-7.811 19.424,-18.71 z" /></g><g
           transform="translate(225.0284,104.9875)"
           id="g42"><path
             id="path44"
             style="fill:#0c2543;fill-opacity:1;fill-rule:nonzero;stroke:none"
             d="m 0,0 v -7.903 c -0.907,0.092 -1.906,0.182 -3.086,0.182 -6.262,0 -10.982,-4.269 -10.982,-10.627 v -18.438 h -8.621 v 36.333 h 8.621 v -4.996 c 2.543,3.541 6.446,5.721 11.164,5.721 C -1.906,0.272 -0.907,0.182 0,0" /></g><g
           transform="translate(295.5111,97.2666)"
           id="g46"><path
             id="path48"
             style="fill:#0c2543;fill-opacity:1;fill-rule:nonzero;stroke:none"
             d="m 0,0 v -16.804 c 0,-3.178 2.09,-5.176 4.812,-5.176 h 4.175 v -6.632 c -0.909,-0.635 -3.178,-1.181 -5.266,-1.181 -6.625,0 -12.342,5.268 -12.342,11.99 V 0 h -5.991 v 7.267 h 5.991 V 22.162 H 0 V 7.267 H 9.169 V 0 Z" /></g><g
           transform="translate(344.5302,86.3677)"
           id="g50"><path
             id="path52"
             style="fill:#0c2543;fill-opacity:1;fill-rule:nonzero;stroke:none"
             d="m 0,0 c 0,6.085 -4.81,10.899 -10.89,10.899 -6.172,0 -10.893,-4.814 -10.893,-10.899 0,-6.087 4.721,-10.899 10.893,-10.899 C -4.81,-10.899 0,-6.087 0,0 m -30.404,0 c 0,10.627 8.258,18.891 19.514,18.891 11.254,0 19.513,-8.264 19.513,-18.891 0,-10.627 -8.259,-18.894 -19.513,-18.894 -11.256,0 -19.514,8.267 -19.514,18.894" /></g><g
           transform="translate(388.9277,104.9875)"
           id="g54"><path
             id="path56"
             style="fill:#0c2543;fill-opacity:1;fill-rule:nonzero;stroke:none"
             d="m 0,0 v -7.903 c -0.907,0.092 -1.906,0.182 -3.086,0.182 -6.262,0 -10.982,-4.269 -10.982,-10.627 v -18.438 h -8.621 v 36.333 h 8.621 v -4.996 c 2.543,3.541 6.446,5.721 11.164,5.721 C -1.906,0.272 -0.907,0.182 0,0" /></g><g
           transform="translate(399.5047,75.8301)"
           id="g58"><path
             id="path60"
             style="fill:#0c2543;fill-opacity:1;fill-rule:nonzero;stroke:none"
             d="m 0,0 6.989,3.18 c 1.089,-2.816 3.993,-4.087 6.626,-4.087 2.541,0 4.538,1.271 4.538,3.542 0,2.089 -1.723,3.088 -5.537,4.632 -5.445,1.998 -10.8,4.723 -10.8,11.173 0,6.356 5.083,10.989 11.889,10.989 4.902,0 9.53,-2.451 11.438,-5.539 l -5.448,-4.451 c -0.996,1.634 -3.086,2.725 -5.445,2.725 -2.451,0 -3.903,-1.181 -3.903,-3.27 0,-2.272 1.726,-2.999 5.266,-4.451 C 20.512,12.445 26.321,9.721 26.321,2.817 26.321,-3.724 21.147,-8.356 13.887,-8.356 7.806,-8.356 1.726,-4.994 0,0" /></g><g
           transform="translate(440.7591,73.3791)"
           id="g62"><path
             id="path64"
             style="fill:#fc563a;fill-opacity:1;fill-rule:nonzero;stroke:none"
             d="m 0,0 c 0,3.178 2.723,5.903 5.898,5.903 3.179,0 5.901,-2.725 5.901,-5.903 0,-3.18 -2.722,-5.905 -5.901,-5.905 C 2.723,-5.905 0,-3.18 0,0" /></g><g
           transform="translate(502.2476,91.5434)"
           id="g66"><path
             id="path68"
             style="fill:#0c2543;fill-opacity:1;fill-rule:nonzero;stroke:none"
             d="m 0,0 v -23.342 h -8.531 v 22.161 c 0,3.908 -2.994,6.904 -6.987,6.904 -3.995,0 -7.082,-2.996 -7.082,-6.904 v -22.161 h -8.621 V 12.991 H -22.6 V 9.447 c 2.451,2.635 5.809,4.269 9.622,4.269 C -5.898,13.716 0,7.903 0,0" /></g><g
           transform="translate(524.3171,91.182)"
           id="g70"><path
             id="path72"
             style="fill:#0c2543;fill-opacity:1;fill-rule:nonzero;stroke:none"
             d="M 0,0 H 19.967 C 18.333,4.177 14.885,6.812 10.075,6.812 5.174,6.812 1.542,4.087 0,0 m 29.315,-6.177 h -30.04 c 0.453,-6.087 4.628,-10.355 10.8,-10.355 4.718,0 8.532,2.453 10.074,6.268 h 8.623 c -2.179,-7.902 -9.167,-13.444 -18.697,-13.444 -11.256,0 -19.695,7.995 -19.695,18.894 0,10.899 8.439,18.891 19.603,18.891 11.072,0 19.242,-7.811 19.424,-18.71 z" /></g><g
           transform="translate(576.7006,97.2666)"
           id="g74"><path
             id="path76"
             style="fill:#0c2543;fill-opacity:1;fill-rule:nonzero;stroke:none"
             d="m 0,0 v -16.804 c 0,-3.178 2.087,-5.176 4.812,-5.176 h 4.175 v -6.632 c -0.909,-0.635 -3.178,-1.181 -5.266,-1.181 -6.625,0 -12.342,5.268 -12.342,11.99 V 0 h -5.991 v 7.267 h 5.991 V 22.162 H 0 V 7.267 H 9.169 V 0 Z" /></g><g
           transform="translate(656.2569,104.5341)"
           id="g78"><path
             id="path80"
             style="fill:#0c2543;fill-opacity:1;fill-rule:nonzero;stroke:none"
             d="m 0,0 -12.345,-36.333 h -9.256 l -8.17,24.615 -8.259,-24.615 h -9.167 L -59.721,0 h 9.712 L -42.205,-26.796 -33.4,0 h 7.261 L -17.336,-26.978 -9.53,0 Z" /></g><g
           transform="translate(694.0309,86.3677)"
           id="g82"><path
             id="path84"
             style="fill:#0c2543;fill-opacity:1;fill-rule:nonzero;stroke:none"
             d="m 0,0 c 0,6.085 -4.81,10.899 -10.89,10.899 -6.172,0 -10.893,-4.814 -10.893,-10.899 0,-6.087 4.721,-10.899 10.893,-10.899 C -4.81,-10.899 0,-6.087 0,0 m -30.404,0 c 0,10.627 8.258,18.891 19.514,18.891 11.254,0 19.513,-8.264 19.513,-18.891 0,-10.627 -8.259,-18.894 -19.513,-18.894 -11.256,0 -19.514,8.267 -19.514,18.894" /></g><g
           transform="translate(738.4263,104.9875)"
           id="g86"><path
             id="path88"
             style="fill:#0c2543;fill-opacity:1;fill-rule:nonzero;stroke:none"
             d="m 0,0 v -7.903 c -0.907,0.092 -1.906,0.182 -3.086,0.182 -6.262,0 -10.982,-4.269 -10.982,-10.627 v -18.438 h -8.621 v 36.333 h 8.621 v -4.996 c 2.543,3.541 6.446,5.721 11.164,5.721 C -1.906,0.272 -0.907,0.182 0,0" /></g><g
           transform="translate(772.6542,68.2012)"
           id="g90"><path
             id="path92"
             style="fill:#0c2543;fill-opacity:1;fill-rule:nonzero;stroke:none"
             d="M 0,0 -15.429,18.62 V 0 h -8.531 v 64.671 h 8.531 V 21.798 L -0.817,36.333 H 9.894 L -6.444,19.982 11.346,0 Z" /></g></g></g><g
       id="g94"><g
         clip-path="url(#clipPath100)"
         id="g96"><g
           transform="translate(79.4037,86.3677)"
           id="g102"><path
             id="path104"
             style="fill:#ffffff;fill-opacity:1;fill-rule:nonzero;stroke:none"
             d="m 0,0 c 0,6.085 -4.81,10.899 -10.89,10.899 -6.172,0 -10.893,-4.814 -10.893,-10.899 0,-6.087 4.721,-10.899 10.893,-10.899 C -4.81,-10.899 0,-6.087 0,0 m -30.404,0 c 0,10.627 8.258,18.891 19.514,18.891 11.254,0 19.513,-8.264 19.513,-18.891 0,-10.627 -8.259,-18.894 -19.513,-18.894 -11.256,0 -19.514,8.267 -19.514,18.894" /></g><g
           transform="translate(131.2439,86.3677)"
           id="g106"><path
             id="path108"
             style="fill:#ffffff;fill-opacity:1;fill-rule:nonzero;stroke:none"
             d="m 0,0 c 0,6.085 -4.81,10.899 -10.89,10.899 -6.083,0 -10.893,-4.814 -10.893,-10.899 0,-6.087 4.81,-10.899 10.893,-10.899 C -4.81,-10.899 0,-6.087 0,0 m 8.623,0 c 0,-10.538 -8.17,-18.894 -18.425,-18.894 -4.628,0 -8.623,1.726 -11.709,4.543 v -25.613 h -8.621 v 58.13 h 8.621 v -3.815 c 3.086,2.814 7.081,4.54 11.709,4.54 C 0.453,18.891 8.623,10.535 8.623,0" /></g><g
           transform="translate(251.5432,75.4687)"
           id="g110"><path
             id="path112"
             style="fill:#ffffff;fill-opacity:1;fill-rule:nonzero;stroke:none"
             d="m 0,0 c 6.082,0 10.892,4.812 10.892,10.899 0,6.085 -4.81,10.899 -10.892,10.899 -6.08,0 -10.89,-4.814 -10.89,-10.899 C -10.89,4.812 -6.08,0 0,0 m -1.089,29.79 c 4.629,0 8.624,-1.726 11.71,-4.54 v 3.815 h 8.621 v -37.3 h -8.621 v 4.783 C 7.535,-6.269 3.54,-7.995 -1.089,-7.995 c -10.255,0 -18.424,8.356 -18.424,18.894 0,10.535 8.169,18.891 18.424,18.891" /></g><g
           transform="translate(160.0311,91.182)"
           id="g114"><path
             id="path116"
             style="fill:#ffffff;fill-opacity:1;fill-rule:nonzero;stroke:none"
             d="M 0,0 H 19.967 C 18.333,4.177 14.885,6.812 10.075,6.812 5.174,6.812 1.542,4.087 0,0 m 29.315,-6.177 h -30.04 c 0.453,-6.087 4.628,-10.355 10.8,-10.355 4.718,0 8.532,2.453 10.074,6.268 h 8.623 c -2.179,-7.902 -9.167,-13.444 -18.697,-13.444 -11.256,0 -19.695,7.995 -19.695,18.894 0,10.899 8.439,18.891 19.603,18.891 11.072,0 19.242,-7.811 19.424,-18.71 z" /></g><g
           transform="translate(225.0284,104.9875)"
           id="g118"><path
             id="path120"
             style="fill:#ffffff;fill-opacity:1;fill-rule:nonzero;stroke:none"
             d="m 0,0 v -7.903 c -0.907,0.092 -1.906,0.182 -3.086,0.182 -6.262,0 -10.982,-4.269 -10.982,-10.627 v -18.438 h -8.621 v 36.333 h 8.621 v -4.996 c 2.543,3.541 6.446,5.721 11.164,5.721 C -1.906,0.272 -0.907,0.182 0,0" /></g><g
           transform="translate(295.5111,97.2666)"
           id="g122"><path
             id="path124"
             style="fill:#ffffff;fill-opacity:1;fill-rule:nonzero;stroke:none"
             d="m 0,0 v -16.804 c 0,-3.178 2.09,-5.176 4.812,-5.176 h 4.175 v -6.632 c -0.909,-0.635 -3.178,-1.181 -5.266,-1.181 -6.625,0 -12.342,5.268 -12.342,11.99 V 0 h -5.991 v 7.267 h 5.991 V 22.162 H 0 V 7.267 H 9.169 V 0 Z" /></g><g
           transform="translate(344.5302,86.3677)"
           id="g126"><path
             id="path128"
             style="fill:#ffffff;fill-opacity:1;fill-rule:nonzero;stroke:none"
             d="m 0,0 c 0,6.085 -4.81,10.899 -10.89,10.899 -6.172,0 -10.893,-4.814 -10.893,-10.899 0,-6.087 4.721,-10.899 10.893,-10.899 C -4.81,-10.899 0,-6.087 0,0 m -30.404,0 c 0,10.627 8.258,18.891 19.514,18.891 11.254,0 19.513,-8.264 19.513,-18.891 0,-10.627 -8.259,-18.894 -19.513,-18.894 -11.256,0 -19.514,8.267 -19.514,18.894" /></g><g
           transform="translate(388.9277,104.9875)"
           id="g130"><path
             id="path132"
             style="fill:#ffffff;fill-opacity:1;fill-rule:nonzero;stroke:none"
             d="m 0,0 v -7.903 c -0.907,0.092 -1.906,0.182 -3.086,0.182 -6.262,0 -10.982,-4.269 -10.982,-10.627 v -18.438 h -8.621 v 36.333 h 8.621 v -4.996 c 2.543,3.541 6.446,5.721 11.164,5.721 C -1.906,0.272 -0.907,0.182 0,0" /></g><g
           transform="translate(399.5047,75.8301)"
           id="g134"><path
             id="path136"
             style="fill:#ffffff;fill-opacity:1;fill-rule:nonzero;stroke:none"
             d="m 0,0 6.989,3.18 c 1.089,-2.816 3.993,-4.087 6.626,-4.087 2.541,0 4.538,1.271 4.538,3.542 0,2.089 -1.723,3.088 -5.537,4.632 -5.445,1.998 -10.8,4.723 -10.8,11.173 0,6.356 5.083,10.989 11.889,10.989 4.902,0 9.53,-2.451 11.438,-5.539 l -5.448,-4.451 c -0.996,1.634 -3.086,2.725 -5.445,2.725 -2.451,0 -3.903,-1.181 -3.903,-3.27 0,-2.272 1.726,-2.999 5.266,-4.451 C 20.512,12.445 26.321,9.721 26.321,2.817 26.321,-3.724 21.147,-8.356 13.887,-8.356 7.806,-8.356 1.726,-4.994 0,0" /></g><g
           transform="translate(440.7591,73.3791)"
           id="g138"><path
             id="path140"
             style="fill:#fc563a;fill-opacity:1;fill-rule:nonzero;stroke:none"
             d="m 0,0 c 0,3.178 2.723,5.903 5.898,5.903 3.179,0 5.901,-2.725 5.901,-5.903 0,-3.18 -2.722,-5.905 -5.901,-5.905 C 2.723,-5.905 0,-3.18 0,0" /></g><g
           transform="translate(502.2476,91.5434)"
           id="g142"><path
             id="path144"
             style="fill:#ffffff;fill-opacity:1;fill-rule:nonzero;stroke:none"
             d="m 0,0 v -23.342 h -8.531 v 22.161 c 0,3.908 -2.994,6.904 -6.987,6.904 -3.995,0 -7.082,-2.996 -7.082,-6.904 v -22.161 h -8.621 V 12.991 H -22.6 V 9.447 c 2.451,2.635 5.809,4.269 9.622,4.269 C -5.898,13.716 0,7.903 0,0" /></g><g
           transform="translate(524.3171,91.182)"
           id="g146"><path
             id="path148"
             style="fill:#ffffff;fill-opacity:1;fill-rule:nonzero;stroke:none"
             d="M 0,0 H 19.967 C 18.333,4.177 14.885,6.812 10.075,6.812 5.174,6.812 1.542,4.087 0,0 m 29.315,-6.177 h -30.04 c 0.453,-6.087 4.628,-10.355 10.8,-10.355 4.718,0 8.532,2.453 10.074,6.268 h 8.623 c -2.179,-7.902 -9.167,-13.444 -18.697,-13.444 -11.256,0 -19.695,7.995 -19.695,18.894 0,10.899 8.439,18.891 19.603,18.891 11.072,0 19.242,-7.811 19.424,-18.71 z" /></g><g
           transform="translate(576.7006,97.2666)"
           id="g150"><path
             id="path152"
             style="fill:#ffffff;fill-opacity:1;fill-rule:nonzero;stroke:none"
             d="m 0,0 v -16.804 c 0,-3.178 2.087,-5.176 4.812,-5.176 h 4.175 v -6.632 c -0.909,-0.635 -3.178,-1.181 -5.266,-1.181 -6.625,0 -12.342,5.268 -12.342,11.99 V 0 h -5.991 v 7.267 h 5.991 V 22.162 H 0 V 7.267 H 9.169 V 0 Z" /></g><g
           transform="translate(656.2569,104.5341)"
           id="g154"><path
             id="path156"
             style="fill:#ffffff;fill-opacity:1;fill-rule:nonzero;stroke:none"
             d="m 0,0 -12.345,-36.333 h -9.256 l -8.17,24.615 -8.259,-24.615 h -9.167 L -59.721,0 h 9.712 L -42.205,-26.796 -33.4,0 h 7.261 L -17.336,-26.978 -9.53,0 Z" /></g><g
           transform="translate(694.0309,86.3677)"
           id="g158"><path
             id="path160"
             style="fill:#ffffff;fill-opacity:1;fill-rule:nonzero;stroke:none"
             d="m 0,0 c 0,6.085 -4.81,10.899 -10.89,10.899 -6.172,0 -10.893,-4.814 -10.893,-10.899 0,-6.087 4.721,-10.899 10.893,-10.899 C -4.81,-10.899 0,-6.087 0,0 m -30.404,0 c 0,10.627 8.258,18.891 19.514,18.891 11.254,0 19.513,-8.264 19.513,-18.891 0,-10.627 -8.259,-18.894 -19.513,-18.894 -11.256,0 -19.514,8.267 -19.514,18.894" /></g><g
           transform="translate(738.4263,104.9875)"
           id="g162"><path
             id="path164"
             style="fill:#ffffff;fill-opacity:1;fill-rule:nonzero;stroke:none"
             d="m 0,0 v -7.903 c -0.907,0.092 -1.906,0.182 -3.086,0.182 -6.262,0 -10.982,-4.269 -10.982,-10.627 v -18.438 h -8.621 v 36.333 h 8.621 v -4.996 c 2.543,3.541 6.446,5.721 11.164,5.721 C -1.906,0.272 -0.907,0.182 0,0" /></g><g
           transform="translate(772.6542,68.2012)"
           id="g166"><path
             id="path168"
             style="fill:#ffffff;fill-opacity:1;fill-rule:nonzero;stroke:none"
             d="M 0,0 -15.429,18.62 V 0 h -8.531 v 64.671 h 8.531 V 21.798 L -0.817,36.333 H 9.894 L -6.444,19.982 11.346,0 Z" /></g></g></g><g
       id="g170"><g
         clip-path="url(#clipPath176)"
         id="g172"><g
           transform="translate(79.4037,86.3677)"
           id="g178"><path
             id="path180"
             style="fill:#ffffff;fill-opacity:1;fill-rule:nonzero;stroke:none"
             d="m 0,0 c 0,6.085 -4.81,10.899 -10.89,10.899 -6.172,0 -10.893,-4.814 -10.893,-10.899 0,-6.087 4.721,-10.899 10.893,-10.899 C -4.81,-10.899 0,-6.087 0,0 m -30.404,0 c 0,10.627 8.258,18.891 19.514,18.891 11.254,0 19.513,-8.264 19.513,-18.891 0,-10.627 -8.259,-18.894 -19.513,-18.894 -11.256,0 -19.514,8.267 -19.514,18.894" /></g><g
           transform="translate(131.2439,86.3677)"
           id="g182"><path
             id="path184"
             style="fill:#ffffff;fill-opacity:1;fill-rule:nonzero;stroke:none"
             d="m 0,0 c 0,6.085 -4.81,10.899 -10.89,10.899 -6.083,0 -10.893,-4.814 -10.893,-10.899 0,-6.087 4.81,-10.899 10.893,-10.899 C -4.81,-10.899 0,-6.087 0,0 m 8.623,0 c 0,-10.538 -8.17,-18.894 -18.425,-18.894 -4.628,0 -8.623,1.726 -11.709,4.543 v -25.613 h -8.621 v 58.13 h 8.621 v -3.815 c 3.086,2.814 7.081,4.54 11.709,4.54 C 0.453,18.891 8.623,10.535 8.623,0" /></g><g
           transform="translate(251.5432,75.4687)"
           id="g186"><path
             id="path188"
             style="fill:#ffffff;fill-opacity:1;fill-rule:nonzero;stroke:none"
             d="m 0,0 c 6.082,0 10.892,4.812 10.892,10.899 0,6.085 -4.81,10.899 -10.892,10.899 -6.08,0 -10.89,-4.814 -10.89,-10.899 C -10.89,4.812 -6.08,0 0,0 m -1.089,29.79 c 4.629,0 8.624,-1.726 11.71,-4.54 v 3.815 h 8.621 v -37.3 h -8.621 v 4.783 C 7.535,-6.269 3.54,-7.995 -1.089,-7.995 c -10.255,0 -18.424,8.356 -18.424,18.894 0,10.535 8.169,18.891 18.424,18.891" /></g><g
           transform="translate(160.0311,91.182)"
           id="g190"><path
             id="path192"
             style="fill:#ffffff;fill-opacity:1;fill-rule:nonzero;stroke:none"
             d="M 0,0 H 19.967 C 18.333,4.177 14.885,6.812 10.075,6.812 5.174,6.812 1.542,4.087 0,0 m 29.315,-6.177 h -30.04 c 0.453,-6.087 4.628,-10.355 10.8,-10.355 4.718,0 8.532,2.453 10.074,6.268 h 8.623 c -2.179,-7.902 -9.167,-13.444 -18.697,-13.444 -11.256,0 -19.695,7.995 -19.695,18.894 0,10.899 8.439,18.891 19.603,18.891 11.072,0 19.242,-7.811 19.424,-18.71 z" /></g><g
           transform="translate(225.0284,104.9875)"
           id="g194"><path
             id="path196"
             style="fill:#ffffff;fill-opacity:1;fill-rule:nonzero;stroke:none"
             d="m 0,0 v -7.903 c -0.907,0.092 -1.906,0.182 -3.086,0.182 -6.262,0 -10.982,-4.269 -10.982,-10.627 v -18.438 h -8.621 v 36.333 h 8.621 v -4.996 c 2.543,3.541 6.446,5.721 11.164,5.721 C -1.906,0.272 -0.907,0.182 0,0" /></g><g
           transform="translate(295.5111,97.2666)"
           id="g198"><path
             id="path200"
             style="fill:#ffffff;fill-opacity:1;fill-rule:nonzero;stroke:none"
             d="m 0,0 v -16.804 c 0,-3.178 2.09,-5.176 4.812,-5.176 h 4.175 v -6.632 c -0.909,-0.635 -3.178,-1.181 -5.266,-1.181 -6.625,0 -12.342,5.268 -12.342,11.99 V 0 h -5.991 v 7.267 h 5.991 V 22.162 H 0 V 7.267 H 9.169 V 0 Z" /></g><g
           transform="translate(344.5302,86.3677)"
           id="g202"><path
             id="path204"
             style="fill:#ffffff;fill-opacity:1;fill-rule:nonzero;stroke:none"
             d="m 0,0 c 0,6.085 -4.81,10.899 -10.89,10.899 -6.172,0 -10.893,-4.814 -10.893,-10.899 0,-6.087 4.721,-10.899 10.893,-10.899 C -4.81,-10.899 0,-6.087 0,0 m -30.404,0 c 0,10.627 8.258,18.891 19.514,18.891 11.254,0 19.513,-8.264 19.513,-18.891 0,-10.627 -8.259,-18.894 -19.513,-18.894 -11.256,0 -19.514,8.267 -19.514,18.894" /></g><g
           transform="translate(388.9277,104.9875)"
           id="g206"><path
             id="path208"
             style="fill:#ffffff;fill-opacity:1;fill-rule:nonzero;stroke:none"
             d="m 0,0 v -7.903 c -0.907,0.092 -1.906,0.182 -3.086,0.182 -6.262,0 -10.982,-4.269 -10.982,-10.627 v -18.438 h -8.621 v 36.333 h 8.621 v -4.996 c 2.543,3.541 6.446,5.721 11.164,5.721 C -1.906,0.272 -0.907,0.182 0,0" /></g><g
           transform="translate(399.5047,75.8301)"
           id="g210"><path
             id="path212"
             style="fill:#ffffff;fill-opacity:1;fill-rule:nonzero;stroke:none"
             d="m 0,0 6.989,3.18 c 1.089,-2.816 3.993,-4.087 6.626,-4.087 2.541,0 4.538,1.271 4.538,3.542 0,2.089 -1.723,3.088 -5.537,4.632 -5.445,1.998 -10.8,4.723 -10.8,11.173 0,6.356 5.083,10.989 11.889,10.989 4.902,0 9.53,-2.451 11.438,-5.539 l -5.448,-4.451 c -0.996,1.634 -3.086,2.725 -5.445,2.725 -2.451,0 -3.903,-1.181 -3.903,-3.27 0,-2.272 1.726,-2.999 5.266,-4.451 C 20.512,12.445 26.321,9.721 26.321,2.817 26.321,-3.724 21.147,-8.356 13.887,-8.356 7.806,-8.356 1.726,-4.994 0,0" /></g><g
           transform="translate(440.7591,73.3791)"
           id="g214"><path
             id="path216"
             style="fill:#ffffff;fill-opacity:1;fill-rule:nonzero;stroke:none"
             d="m 0,0 c 0,3.178 2.723,5.903 5.898,5.903 3.179,0 5.901,-2.725 5.901,-5.903 0,-3.18 -2.722,-5.905 -5.901,-5.905 C 2.723,-5.905 0,-3.18 0,0" /></g><g
           transform="translate(502.2476,91.5434)"
           id="g218"><path
             id="path220"
             style="fill:#ffffff;fill-opacity:1;fill-rule:nonzero;stroke:none"
             d="m 0,0 v -23.342 h -8.531 v 22.161 c 0,3.908 -2.994,6.904 -6.987,6.904 -3.995,0 -7.082,-2.996 -7.082,-6.904 v -22.161 h -8.621 V 12.991 H -22.6 V 9.447 c 2.451,2.635 5.809,4.269 9.622,4.269 C -5.898,13.716 0,7.903 0,0" /></g><g
           transform="translate(524.3171,91.182)"
           id="g222"><path
             id="path224"
             style="fill:#ffffff;fill-opacity:1;fill-rule:nonzero;stroke:none"
             d="M 0,0 H 19.967 C 18.333,4.177 14.885,6.812 10.075,6.812 5.174,6.812 1.542,4.087 0,0 m 29.315,-6.177 h -30.04 c 0.453,-6.087 4.628,-10.355 10.8,-10.355 4.718,0 8.532,2.453 10.074,6.268 h 8.623 c -2.179,-7.902 -9.167,-13.444 -18.697,-13.444 -11.256,0 -19.695,7.995 -19.695,18.894 0,10.899 8.439,18.891 19.603,18.891 11.072,0 19.242,-7.811 19.424,-18.71 z" /></g><g
           transform="translate(576.7006,97.2666)"
           id="g226"><path
             id="path228"
             style="fill:#ffffff;fill-opacity:1;fill-rule:nonzero;stroke:none"
             d="m 0,0 v -16.804 c 0,-3.178 2.087,-5.176 4.812,-5.176 h 4.175 v -6.632 c -0.909,-0.635 -3.178,-1.181 -5.266,-1.181 -6.625,0 -12.342,5.268 -12.342,11.99 V 0 h -5.991 v 7.267 h 5.991 V 22.162 H 0 V 7.267 H 9.169 V 0 Z" /></g><g
           transform="translate(656.2569,104.5341)"
           id="g230"><path
             id="path232"
             style="fill:#ffffff;fill-opacity:1;fill-rule:nonzero;stroke:none"
             d="m 0,0 -12.345,-36.333 h -9.256 l -8.17,24.615 -8.259,-24.615 h -9.167 L -59.721,0 h 9.712 L -42.205,-26.796 -33.4,0 h 7.261 L -17.336,-26.978 -9.53,0 Z" /></g><g
           transform="translate(694.0309,86.3677)"
           id="g234"><path
             id="path236"
             style="fill:#ffffff;fill-opacity:1;fill-rule:nonzero;stroke:none"
             d="m 0,0 c 0,6.085 -4.81,10.899 -10.89,10.899 -6.172,0 -10.893,-4.814 -10.893,-10.899 0,-6.087 4.721,-10.899 10.893,-10.899 C -4.81,-10.899 0,-6.087 0,0 m -30.404,0 c 0,10.627 8.258,18.891 19.514,18.891 11.254,0 19.513,-8.264 19.513,-18.891 0,-10.627 -8.259,-18.894 -19.513,-18.894 -11.256,0 -19.514,8.267 -19.514,18.894" /></g><g
           transform="translate(738.4263,104.9875)"
           id="g238"><path
             id="path240"
             style="fill:#ffffff;fill-opacity:1;fill-rule:nonzero;stroke:none"
             d="m 0,0 v -7.903 c -0.907,0.092 -1.906,0.182 -3.086,0.182 -6.262,0 -10.982,-4.269 -10.982,-10.627 v -18.438 h -8.621 v 36.333 h 8.621 v -4.996 c 2.543,3.541 6.446,5.721 11.164,5.721 C -1.906,0.272 -0.907,0.182 0,0" /></g><g
           transform="translate(772.6542,68.2012)"
           id="g242"><path
             id="path244"
             style="fill:#ffffff;fill-opacity:1;fill-rule:nonzero;stroke:none"
             d="M 0,0 -15.429,18.62 V 0 h -8.531 v 64.671 h 8.531 V 21.798 L -0.817,36.333 H 9.894 L -6.444,19.982 11.346,0 Z" /></g></g></g><g
       id="g246"><g
         clip-path="url(#clipPath252)"
         id="g248"><g
           transform="translate(79.4037,86.3677)"
           id="g254"><path
             id="path256"
             style="fill:#0c2543;fill-opacity:1;fill-rule:nonzero;stroke:none"
             d="m 0,0 c 0,6.085 -4.81,10.899 -10.89,10.899 -6.172,0 -10.893,-4.814 -10.893,-10.899 0,-6.087 4.721,-10.899 10.893,-10.899 C -4.81,-10.899 0,-6.087 0,0 m -30.404,0 c 0,10.627 8.258,18.891 19.514,18.891 11.254,0 19.513,-8.264 19.513,-18.891 0,-10.627 -8.259,-18.894 -19.513,-18.894 -11.256,0 -19.514,8.267 -19.514,18.894" /></g><g
           transform="translate(131.2439,86.3677)"
           id="g258"><path
             id="path260"
             style="fill:#0c2543;fill-opacity:1;fill-rule:nonzero;stroke:none"
             d="m 0,0 c 0,6.085 -4.81,10.899 -10.89,10.899 -6.083,0 -10.893,-4.814 -10.893,-10.899 0,-6.087 4.81,-10.899 10.893,-10.899 C -4.81,-10.899 0,-6.087 0,0 m 8.623,0 c 0,-10.538 -8.17,-18.894 -18.425,-18.894 -4.628,0 -8.623,1.726 -11.709,4.543 v -25.613 h -8.621 v 58.13 h 8.621 v -3.815 c 3.086,2.814 7.081,4.54 11.709,4.54 C 0.453,18.891 8.623,10.535 8.623,0" /></g><g
           transform="translate(251.5432,75.4687)"
           id="g262"><path
             id="path264"
             style="fill:#0c2543;fill-opacity:1;fill-rule:nonzero;stroke:none"
             d="m 0,0 c 6.082,0 10.892,4.812 10.892,10.899 0,6.085 -4.81,10.899 -10.892,10.899 -6.08,0 -10.89,-4.814 -10.89,-10.899 C -10.89,4.812 -6.08,0 0,0 m -1.089,29.79 c 4.629,0 8.624,-1.726 11.71,-4.54 v 3.815 h 8.621 v -37.3 h -8.621 v 4.783 C 7.535,-6.269 3.54,-7.995 -1.089,-7.995 c -10.255,0 -18.424,8.356 -18.424,18.894 0,10.535 8.169,18.891 18.424,18.891" /></g><g
           transform="translate(160.0311,91.182)"
           id="g266"><path
             id="path268"
             style="fill:#0c2543;fill-opacity:1;fill-rule:nonzero;stroke:none"
             d="M 0,0 H 19.967 C 18.333,4.177 14.885,6.812 10.075,6.812 5.174,6.812 1.542,4.087 0,0 m 29.315,-6.177 h -30.04 c 0.453,-6.087 4.628,-10.355 10.8,-10.355 4.718,0 8.532,2.453 10.074,6.268 h 8.623 c -2.179,-7.902 -9.167,-13.444 -18.697,-13.444 -11.256,0 -19.695,7.995 -19.695,18.894 0,10.899 8.439,18.891 19.603,18.891 11.072,0 19.242,-7.811 19.424,-18.71 z" /></g><g
           transform="translate(225.0284,104.9875)"
           id="g270"><path
             id="path272"
             style="fill:#0c2543;fill-opacity:1;fill-rule:nonzero;stroke:none"
             d="m 0,0 v -7.903 c -0.907,0.092 -1.906,0.182 -3.086,0.182 -6.262,0 -10.982,-4.269 -10.982,-10.627 v -18.438 h -8.621 v 36.333 h 8.621 v -4.996 c 2.543,3.541 6.446,5.721 11.164,5.721 C -1.906,0.272 -0.907,0.182 0,0" /></g><g
           transform="translate(295.5111,97.2666)"
           id="g274"><path
             id="path276"
             style="fill:#0c2543;fill-opacity:1;fill-rule:nonzero;stroke:none"
             d="m 0,0 v -16.804 c 0,-3.178 2.09,-5.176 4.812,-5.176 h 4.175 v -6.632 c -0.909,-0.635 -3.178,-1.181 -5.266,-1.181 -6.625,0 -12.342,5.268 -12.342,11.99 V 0 h -5.991 v 7.267 h 5.991 V 22.162 H 0 V 7.267 H 9.169 V 0 Z" /></g><g
           transform="translate(344.5302,86.3677)"
           id="g278"><path
             id="path280"
             style="fill:#0c2543;fill-opacity:1;fill-rule:nonzero;stroke:none"
             d="m 0,0 c 0,6.085 -4.81,10.899 -10.89,10.899 -6.172,0 -10.893,-4.814 -10.893,-10.899 0,-6.087 4.721,-10.899 10.893,-10.899 C -4.81,-10.899 0,-6.087 0,0 m -30.404,0 c 0,10.627 8.258,18.891 19.514,18.891 11.254,0 19.513,-8.264 19.513,-18.891 0,-10.627 -8.259,-18.894 -19.513,-18.894 -11.256,0 -19.514,8.267 -19.514,18.894" /></g><g
           transform="translate(388.9277,104.9875)"
           id="g282"><path
             id="path284"
             style="fill:#0c2543;fill-opacity:1;fill-rule:nonzero;stroke:none"
             d="m 0,0 v -7.903 c -0.907,0.092 -1.906,0.182 -3.086,0.182 -6.262,0 -10.982,-4.269 -10.982,-10.627 v -18.438 h -8.621 v 36.333 h 8.621 v -4.996 c 2.543,3.541 6.446,5.721 11.164,5.721 C -1.906,0.272 -0.907,0.182 0,0" /></g><g
           transform="translate(399.5047,75.8301)"
           id="g286"><path
             id="path288"
             style="fill:#0c2543;fill-opacity:1;fill-rule:nonzero;stroke:none"
             d="m 0,0 6.989,3.18 c 1.089,-2.816 3.993,-4.087 6.626,-4.087 2.541,0 4.538,1.271 4.538,3.542 0,2.089 -1.723,3.088 -5.537,4.632 -5.445,1.998 -10.8,4.723 -10.8,11.173 0,6.356 5.083,10.989 11.889,10.989 4.902,0 9.53,-2.451 11.438,-5.539 l -5.448,-4.451 c -0.996,1.634 -3.086,2.725 -5.445,2.725 -2.451,0 -3.903,-1.181 -3.903,-3.27 0,-2.272 1.726,-2.999 5.266,-4.451 C 20.512,12.445 26.321,9.721 26.321,2.817 26.321,-3.724 21.147,-8.356 13.887,-8.356 7.806,-8.356 1.726,-4.994 0,0" /></g><g
           transform="translate(440.7591,73.3791)"
           id="g290"><path
             id="path292"
             style="fill:#0c2543;fill-opacity:1;fill-rule:nonzero;stroke:none"
             d="m 0,0 c 0,3.178 2.723,5.903 5.898,5.903 3.179,0 5.901,-2.725 5.901,-5.903 0,-3.18 -2.722,-5.905 -5.901,-5.905 C 2.723,-5.905 0,-3.18 0,0" /></g><g
           transform="translate(502.2476,91.5434)"
           id="g294"><path
             id="path296"
             style="fill:#0c2543;fill-opacity:1;fill-rule:nonzero;stroke:none"
             d="m 0,0 v -23.342 h -8.531 v 22.161 c 0,3.908 -2.994,6.904 -6.987,6.904 -3.995,0 -7.082,-2.996 -7.082,-6.904 v -22.161 h -8.621 V 12.991 H -22.6 V 9.447 c 2.451,2.635 5.809,4.269 9.622,4.269 C -5.898,13.716 0,7.903 0,0" /></g><g
           transform="translate(524.3171,91.182)"
           id="g298"><path
             id="path300"
             style="fill:#0c2543;fill-opacity:1;fill-rule:nonzero;stroke:none"
             d="M 0,0 H 19.967 C 18.333,4.177 14.885,6.812 10.075,6.812 5.174,6.812 1.542,4.087 0,0 m 29.315,-6.177 h -30.04 c 0.453,-6.087 4.628,-10.355 10.8,-10.355 4.718,0 8.532,2.453 10.074,6.268 h 8.623 c -2.179,-7.902 -9.167,-13.444 -18.697,-13.444 -11.256,0 -19.695,7.995 -19.695,18.894 0,10.899 8.439,18.891 19.603,18.891 11.072,0 19.242,-7.811 19.424,-18.71 z" /></g><g
           transform="translate(576.7006,97.2666)"
           id="g302"><path
             id="path304"
             style="fill:#0c2543;fill-opacity:1;fill-rule:nonzero;stroke:none"
             d="m 0,0 v -16.804 c 0,-3.178 2.087,-5.176 4.812,-5.176 h 4.175 v -6.632 c -0.909,-0.635 -3.178,-1.181 -5.266,-1.181 -6.625,0 -12.342,5.268 -12.342,11.99 V 0 h -5.991 v 7.267 h 5.991 V 22.162 H 0 V 7.267 H 9.169 V 0 Z" /></g><g
           transform="translate(656.2569,104.5341)"
           id="g306"><path
             id="path308"
             style="fill:#0c2543;fill-opacity:1;fill-rule:nonzero;stroke:none"
             d="m 0,0 -12.345,-36.333 h -9.256 l -8.17,24.615 -8.259,-24.615 h -9.167 L -59.721,0 h 9.712 L -42.205,-26.796 -33.4,0 h 7.261 L -17.336,-26.978 -9.53,0 Z" /></g><g
           transform="translate(694.0309,86.3677)"
           id="g310"><path
             id="path312"
             style="fill:#0c2543;fill-opacity:1;fill-rule:nonzero;stroke:none"
             d="m 0,0 c 0,6.085 -4.81,10.899 -10.89,10.899 -6.172,0 -10.893,-4.814 -10.893,-10.899 0,-6.087 4.721,-10.899 10.893,-10.899 C -4.81,-10.899 0,-6.087 0,0 m -30.404,0 c 0,10.627 8.258,18.891 19.514,18.891 11.254,0 19.513,-8.264 19.513,-18.891 0,-10.627 -8.259,-18.894 -19.513,-18.894 -11.256,0 -19.514,8.267 -19.514,18.894" /></g><g
           transform="translate(738.4263,104.9875)"
           id="g314"><path
             id="path316"
             style="fill:#0c2543;fill-opacity:1;fill-rule:nonzero;stroke:none"
             d="m 0,0 v -7.903 c -0.907,0.092 -1.906,0.182 -3.086,0.182 -6.262,0 -10.982,-4.269 -10.982,-10.627 v -18.438 h -8.621 v 36.333 h 8.621 v -4.996 c 2.543,3.541 6.446,5.721 11.164,5.721 C -1.906,0.272 -0.907,0.182 0,0" /></g><g
           transform="translate(772.6542,68.2012)"
           id="g318"><path
             id="path320"
             style="fill:#0c2543;fill-opacity:1;fill-rule:nonzero;stroke:none"
             d="M 0,0 -15.429,18.62 V 0 h -8.531 v 64.671 h 8.531 V 21.798 L -0.817,36.333 H 9.894 L -6.444,19.982 11.346,0 Z" /></g></g></g></g></svg>